<svg xmlns="http://www.w3.org/2000/svg" viewBox="0 0 32 32">
<rect width="32" height="32" fill="#0F1B2D"/>
<g transform="translate(8.36,23.00)"><g transform="translate(0.000,0) scale(0.022000,-0.022000)"><path d="M338 -15Q326 -15 321 -2Q315 11 306.0 34.0Q297 57 290 76L99 549Q89 574 72.0 592.5Q55 611 27 619Q15 623 7.5 627.5Q0 632 0 640Q0 647 7.0 650.5Q14 654 24 654Q42 654 66.5 653.0Q91 652 116.0 651.0Q141 650 162 650Q182 650 208.0 651.0Q234 652 258.5 653.0Q283 654 300 654Q310 654 319.0 650.5Q328 647 328 640Q328 632 319.0 626.5Q310 621 297 619Q268 614 252.5 605.5Q237 597 237 580Q237 570 240.0 561.0Q243 552 244 545L379 177Q381 172 383.5 171.0Q386 170 389 178L512 502Q532 554 518.5 583.5Q505 613 465 619Q452 621 442.5 626.5Q433 632 433 640Q433 647 442.0 650.0Q451 653 462 653Q480 653 495.0 652.5Q510 652 525.0 651.5Q540 651 559 651Q588 651 616.5 653.0Q645 655 670 655Q682 655 691.0 652.0Q700 649 700 641Q700 632 691.5 628.0Q683 624 671 621Q638 613 616.5 589.0Q595 565 579 527L415 133Q404 106 393.5 82.0Q383 58 374.5 37.0Q366 16 357 -2Q354 -9 350.0 -12.0Q346 -15 338 -15Z" fill="#F2EDE3"/></g></g>
</svg>